<?xml version="1.0" encoding="utf-8"?>
<!-- Generator: Adobe Illustrator 21.0.2, SVG Export Plug-In . SVG Version: 6.00 Build 0)  -->
<svg version="1.1" id="Layer_1" xmlns="http://www.w3.org/2000/svg" xmlns:xlink="http://www.w3.org/1999/xlink" x="0px" y="0px"
	 viewBox="0 0 127.6 127.6" style="enable-background:new 0 0 127.6 127.6;" xml:space="preserve">
<g>
	<g>
		<g>
			<path d="M109.6,43.5c-0.2-2.2-0.6-4.3-1-6.5l0,0c-0.4-2-1-3.7-1.8-5.5c-0.4-0.8-0.8-1.8-1.2-2.6c-0.6-1-1.2-2-1.8-2.8
				c-0.4-0.6-1-0.8-1.4-1.4c-0.8-0.8-1.8-1.4-2.8-2c-2.8-1.6-5.9-2.8-9.1-3.5c-2.2-0.6-4.1-1-6.3-1.2c-2.6-0.2-4.9-0.4-7.5-0.6
				c-2.8-0.2-5.7,0-8.5,0.2c-3.7,0.2-7.3,0.8-10.8,1.6c-1.4,0.4-2.8,0.8-4.1,1.2c-1.8,0.6-3.4,1.2-5.1,2c-1.2,0.6-2.2,1.4-3.2,2
				c-0.8,0.6-1.8,1.2-2.6,2c-0.8,0.6-1.6,1.4-2.4,2c-1,1-2,2-3,3c-0.6,0.6-1,1.2-1.6,1.8c-0.4,0.6-1,1.2-1.4,1.8
				c-0.6,0.6-1.2,1.4-1.6,2c-0.6,0.8-1.2,1.6-1.8,2.4c-0.6,0.8-1.2,1.8-1.8,2.6c-0.8,1.2-1.6,2.6-2.4,3.9c-0.6,0.8-1,1.8-1.4,2.6
				c-0.8,1.8-1.6,3.4-2.4,5.1c-1,2.2-1.8,4.5-2.6,6.9c-0.6,2.4-1.2,4.5-1.4,6.9c0,0-2,15,11.8,28.8c14.6,14.6,30.2,13,30.2,13
				c0.4,0,1.2-0.2,2.8-0.4c1.8-0.4,3.4-0.8,5.1-1.4c1.6-0.4,3-1,4.3-1.6c1-0.4,2.2-0.8,3.2-1.4c0.8-0.4,2.4-1,3.2-1.6
				c1-0.6,2-1,3.2-1.6c0.8-0.4,1.6-1,2.4-1.4c0.6-0.4,1.2-0.8,1.6-1c0.6-0.4,1.2-0.6,1.6-1c1-0.6,1.8-1.4,2.8-2
				c0.6-0.4,1.2-1,1.8-1.4c1-0.8,2-1.8,3-2.6c1.4-1.2,2.6-2.4,3.7-3.7c1-1,1.8-2.2,2.6-3.4c0.8-1,1.6-2.2,2.2-3.4
				c1.2-2.4,2.2-4.9,3-7.5c0.6-2,1-3.9,1.4-5.9c0.4-2.2,0.8-4.3,1-6.5c0.2-2.2,0.4-4.5,0.4-6.7c0-2.2,0-4.5,0-6.7
				C110,46.7,109.8,45.1,109.6,43.5z M72.6,88.8C57.8,92.2,43,82.9,39.6,68.1S45.6,38.4,60.3,35s29.6,5.9,32.9,20.7
				C96.6,70.7,87.3,85.5,72.6,88.8z"/>
		</g>
	</g>
</g>
</svg>
